<svg width="128" height="128" xmlns="http://www.w3.org/2000/svg">
  <path fill="currentColor" d="M59 10a5 5 0 0 1 10 0v10h7c18.778 0 34 15.222 34 34v28c0 18.778-15.222 34-34 34H52c-18.778 0-34-15.222-34-34V54c0-18.778 15.222-34 34-34h7V10zm-7 20c-13.255 0-24 10.745-24 24v28c0 13.255 10.745 24 24 24h24c13.255 0 24-10.745 24-24V54c0-13.255-10.745-24-24-24H52zM12 57a6 6 0 0 1 6 6v10a6 6 0 1 1-12 0V63a6 6 0 0 1 6-6zm104 0a6 6 0 0 1 6 6v10a6 6 0 1 1-12 0V63a6 6 0 0 1 6-6zM49 57a9 9 0 1 1 0 18 9 9 0 0 1 0-18zm30 0a9 9 0 1 1 0 18 9 9 0 0 1 0-18zm-26 31a5 5 0 0 1 5-5h24a5 5 0 1 1 0 10H58a5 5 0 0 1-5-5z"/>
  <path fill="currentColor" d="M64 18a6 6 0 1 1 0-12 6 6 0 0 1 0 12z"/>
</svg>
