<svg xmlns="http://www.w3.org/2000/svg" viewBox="0 0 1024 1024"><path d="M661.7 426.6c43.6 33.7 75.3 84.1 84.9 142.2 3.8 23.3-13.8 44.5-37.5 44.5H196.8c-18.7 0-34.6-12.8-38.9-30.9-15-62.7 18.2-127.3 80.6-156.9 8.2-3.9 12-13.5 8.7-22-19.1-48.4-1.2-104.7 45.4-137.9 44.2-31.4 103.5-29 144.7 6 7 5.9 17.5 4.8 23.2-2.5 8.5-10.9 18.3-20.5 29.3-28.5 28.1-20.5 61.9-24.3 93.3-11.8 11.6 4.7 25 2.1 33.4-6.4 5.2-5.3 8-12.2 7-19.1-5.1-34.7-21.2-64.8-45.7-85.2-15.9-13.2-38-20.4-60.8-17.8-37.1 4.2-67.6 33-72.3 70-3 23.6 7.4 45.9 25.1 61.3 5.4 4.7 5.6 12.9 0.4 17.8-37.4 35.5-54.8 88.3-43.2 139.7 5.4 23.9-12.8 46.8-37.4 46.8H200.8c-30.8 0-53.7-28.3-48-58.5 13.9-74 72.3-133 146.4-144.3 9.4-1.4 16-10.3 14.6-19.7-10.7-72.2 18.2-145 78.4-184.4 75.6-49.5 174.5-44.5 244 11.8 9.9 8 23.2 8.3 33.4 0.6 63.6-48.2 149.7-53.5 220.1-12.3 82.5 48.3 125.7 122.3 113.8 202-3.7 23.3-23.9 40.8-47.5 40.8H628.7c-22.1 0-39-19-35.9-40.9 10-69.6 48-129.5 101.9-166.7 19.3-13.3 14.2-43.2-9-43.2h-24Z" fill="currentColor"/></svg>
