<svg xmlns="http://www.w3.org/2000/svg" viewBox="0 0 1024 1024"><path d="M160 192c-17.7 0-32 14.3-32 32v192c35.3 0 64 28.7 64 64s-28.7 64-64 64v192c0 17.7 14.3 32 32 32h704c17.7 0 32-14.3 32-32V544c-35.3 0-64-28.7-64-64s28.7-64 64-64V224c0-17.7-14.3-32-32-32H160zm0-64h704c53 0 96 43 96 96v176.2c-23.3 5.4-40.8 26.2-40.8 51.1s17.5 45.7 40.8 51.1V768c0 53-43 96-96 96H160c-53 0-96-43-96-96V502.4c23.3-5.4 40.8-26.2 40.8-51.1S87.3 405.6 64 400.2V224c0-53 43-96 96-96z" fill="currentColor"/><path d="M320 320h384v64H320z" fill="currentColor"/><path d="M320 576h384v64H320z" fill="currentColor"/></svg>
